<svg width="80" height="80" viewBox="0 0 80 80" fill="none" xmlns="http://www.w3.org/2000/svg">
<rect width="80" height="80" fill="#5BA3FF"/>
<path d="M39.5135 17.9977C42.9498 13.1701 49.4608 11.5734 54.415 14.3876C59.8527 17.4765 61.487 24.4209 58.5773 32.9156C55.8895 40.7624 48.019 45.3528 40.6711 48.0227C40.6614 48.0262 40.6512 48.0294 40.6414 48.0329C40.1954 52.0641 39.8371 55.9863 39.5702 59.3621H53.5376C55.6467 59.3621 57.3565 61.0719 57.3565 63.181C57.3565 65.2902 55.6467 67 53.5376 67H31.411L31.6776 62.9302C31.9003 59.5344 32.2613 55.0926 32.7461 50.3265C29.865 50.9846 27.0624 51.4503 24.5321 51.7577L26.0363 56.4566C26.6676 58.4286 25.6202 60.5458 23.6696 61.2405C21.6506 61.9597 19.434 60.8852 18.7477 58.8548L14 44.8088L19.123 44.5673C22.8779 44.3907 28.283 43.6903 33.664 42.228C33.817 41.0217 33.9777 39.8201 34.1453 38.6338C34.7575 34.2989 35.4748 30.101 36.298 26.6072C37.0726 23.3193 38.0736 20.0207 39.5135 17.9977ZM50.6653 21.0344C49.3166 20.2687 47.0273 20.5824 45.7068 22.4377C45.2439 23.0882 44.5007 24.9858 43.7046 28.3647C42.9793 31.4432 42.3187 35.2448 41.7349 39.3274C46.6986 36.9832 50.1608 33.9884 51.3788 30.4327C53.7014 23.6519 51.5303 21.5258 50.6653 21.0344Z" fill="white"/>
</svg>
